# Blender 4.3.1
# www.blender.org
mtllib FMP.mtl
o Building2
v 85.406113 7.129650 24.397406
v 82.328362 8.350681 21.983809
v 85.393997 9.997964 24.397406
v 82.324600 9.241655 22.583332
v 82.328362 8.350681 22.583332
v 82.228828 9.984595 24.356512
v 85.470146 7.129920 19.441029
v 85.458031 9.998235 19.441029
v 82.324600 9.241655 21.983809
v 83.825424 11.522195 24.646978
v 82.292870 9.984866 19.400135
v 83.805557 11.378561 24.376959
v 82.328369 8.350682 23.195259
v 83.869591 11.378832 19.420582
v 82.324600 9.241656 23.794781
v 82.241386 7.116282 21.330238
v 82.328369 8.350682 23.794781
v 82.229271 9.984597 21.330238
v 83.887566 7.123236 19.420582
v 83.875450 9.991550 19.420582
v 82.324600 9.241656 23.195259
v 83.887253 7.123234 21.329210
v 83.875137 9.991549 21.329210
v 82.082352 9.981165 24.624374
v 82.117744 9.981314 21.278826
v 82.153145 9.981463 19.145094
v 83.896210 11.522493 19.167698
v 85.652237 9.996243 19.190304
v 85.581444 9.995944 24.669582
v 82.504387 7.117393 21.329210
v 82.504700 7.117394 19.420582
v 83.374771 7.903305 21.329210
v 83.083542 7.902104 21.329210
v 83.084641 7.641334 21.329210
v 82.793411 7.640133 21.329210
v 82.794518 7.379364 21.329210
v 82.503288 7.378163 21.329210
v 82.503593 7.378164 19.420582
v 82.794823 7.379365 19.420582
v 82.793724 7.640135 19.420582
v 83.084953 7.641335 19.420582
v 83.083847 7.902105 19.420582
v 83.375076 7.903306 19.420582
v 83.884483 7.905458 21.329210
v 83.884789 7.905459 19.420582
v 83.884583 7.905458 20.750385
v 83.884689 7.905458 19.999405
v 83.880165 8.950984 20.750385
v 83.880272 8.950985 19.999405
v 83.955154 7.905756 20.750397
v 83.955261 7.905757 19.999414
v 83.950737 8.951283 20.750397
v 83.950844 8.951283 19.999414
v 82.261589 9.809893 21.330238
v 82.293602 9.810028 19.400135
v 83.877754 9.445477 19.420582
v 83.877449 9.445476 21.329210
v 83.112198 7.795271 19.575211
v 83.104149 9.701535 19.575211
v 83.112198 7.795271 19.453289
v 83.104149 9.701535 19.453289
v 83.234116 7.795785 19.575211
v 83.226067 9.702050 19.575211
v 83.234116 7.795785 19.453289
v 83.226067 9.702050 19.453289
v 83.110245 8.257800 19.575211
v 83.110245 8.257800 19.453289
v 83.232162 8.258315 19.453289
v 83.232162 8.258315 19.575211
v 83.110756 8.137338 19.453289
v 83.232674 8.137853 19.453289
v 83.232674 8.137853 19.575211
v 83.110756 8.137338 19.575211
v 83.896980 8.261124 19.453289
v 83.896980 8.261124 19.575211
v 83.897491 8.140661 19.453289
v 83.897491 8.140661 19.575211
v 83.751625 8.260509 19.453289
v 83.733192 8.139967 19.472227
v 83.751625 8.260509 19.575211
v 83.733192 8.139967 19.556271
v 83.648491 8.139609 19.472227
v 83.648491 8.139609 19.556271
v 83.629044 8.259992 19.453289
v 83.629044 8.259992 19.575211
v 83.463577 8.138828 19.472227
v 83.463577 8.138828 19.556271
v 83.482002 8.259371 19.453289
v 83.482002 8.259371 19.575211
v 83.376732 8.138461 19.472227
v 83.376732 8.138461 19.556271
v 83.357285 8.258844 19.453289
v 83.357285 8.258844 19.575211
v 83.752129 8.140047 19.453289
v 83.752129 8.140047 19.575211
v 83.629555 8.139529 19.453289
v 83.629555 8.139529 19.575211
v 83.482513 8.138908 19.453289
v 83.482513 8.138908 19.575211
v 83.357796 8.138382 19.453289
v 83.357796 8.138382 19.575211
v 83.734245 7.890338 19.472227
v 83.734245 7.890338 19.556271
v 83.649551 7.889981 19.472227
v 83.649551 7.889981 19.556271
v 83.464630 7.889200 19.472227
v 83.464630 7.889200 19.556271
v 83.377785 7.888833 19.472227
v 83.377785 7.888833 19.556271
v 82.238701 7.898535 21.329210
v 82.237831 7.898532 24.358715
v 82.232475 9.241266 22.583332
v 82.236565 8.350293 21.983809
v 82.232567 9.241266 21.983809
v 82.236046 8.350292 23.794781
v 82.232208 9.241266 23.794781
v 82.232376 9.241267 23.195259
v 82.236389 8.350292 22.583332
v 82.236214 8.350293 23.195259
v 82.959686 9.496610 22.844564
v 82.959686 9.496610 21.722576
v 82.965981 8.006399 22.844564
v 82.965981 8.006399 21.722576
v 82.959709 9.493551 24.053705
v 82.959709 9.493551 22.936329
v 82.965981 8.009463 24.053705
v 82.965981 8.009463 22.936329
v 85.410027 7.911931 24.395334
v 82.197983 7.116120 24.403637
v 82.194923 7.898372 24.405926
v 85.404922 7.129643 24.472012
v 85.408836 7.911924 24.469940
v 82.181267 7.116059 21.331333
v 82.178581 7.898313 21.330305
v 82.366875 8.395769 21.951263
v 82.367516 8.244925 21.951263
v 82.366875 8.395769 22.613165
v 82.367516 8.244925 22.613165
v 82.216034 8.395131 21.951263
v 82.216667 8.244287 21.951263
v 82.216034 8.395131 22.613165
v 82.216667 8.244287 22.613165
v 82.366882 8.395769 23.165422
v 82.367523 8.244925 23.165422
v 82.366882 8.395769 23.827326
v 82.367523 8.244925 23.827326
v 82.216042 8.395131 23.165422
v 82.216675 8.244287 23.165422
v 82.216042 8.395131 23.827326
v 82.216675 8.244287 23.827326
v 85.409630 6.276845 24.397434
v 82.244461 6.263476 24.356539
v 85.473663 6.277116 19.441057
v 82.244904 6.263478 21.330265
v 83.890770 6.270430 21.329237
v 83.891083 6.270432 19.420609
v 82.508209 6.264590 19.420609
v 82.507904 6.264589 21.329237
v 85.408440 6.276839 24.472040
v 82.201500 6.263316 24.403664
v 82.184784 6.263256 21.331362
v 83.928329 8.377378 20.649857
v 83.904518 8.359126 20.649090
v 83.928833 8.389929 20.632597
v 83.905518 8.384220 20.614574
v 83.928535 8.410229 20.639189
v 83.904922 8.424814 20.627758
v 83.927849 8.410226 20.660524
v 83.903557 8.424809 20.670422
v 83.927727 8.389924 20.667118
v 83.903305 8.384212 20.683605
v 83.928413 8.359227 20.649857
v 83.929413 8.384321 20.615341
v 83.928818 8.424915 20.628525
v 83.927444 8.424910 20.671188
v 83.927193 8.384312 20.684372
v 83.967621 8.377544 20.651117
v 83.968117 8.390095 20.633858
v 83.967819 8.410395 20.640450
v 83.967140 8.410392 20.661785
v 83.967010 8.390090 20.668379
vn -0.0122 -0.0000 0.9999
vn -0.6623 0.7492 -0.0070
vn -0.5836 -0.6781 -0.4467
vn -0.6016 -0.6861 0.4092
vn 0.0129 0.0001 -0.9999
vn 0.0260 -0.9997 0.0005
vn -0.0105 -0.9999 -0.0002
vn 0.0129 -0.0000 -0.9999
vn 0.6559 0.7548 0.0085
vn -0.6622 0.7492 -0.0109
vn -0.6606 0.7507 -0.0085
vn 0.0261 -0.9997 0.0001
vn 0.6267 -0.7040 -0.3340
vn 0.6225 -0.7090 0.3313
vn -1.0000 -0.0041 -0.0002
vn -0.0182 -0.0001 -0.9998
vn -1.0000 -0.0042 -0.0002
vn -0.0041 1.0000 -0.0000
vn -0.0042 1.0000 -0.0000
vn -0.0039 -0.0000 -1.0000
vn -0.0000 -0.0000 -1.0000
vn -0.0001 -0.0000 1.0000
vn -1.0000 -0.0044 0.0001
vn -1.0000 -0.0047 -0.0002
vn -1.0000 -0.0044 -0.0005
vn -1.0000 -0.0042 -0.0001
vn 0.0002 -0.0000 -1.0000
vn 0.0042 -1.0000 -0.0000
vn -0.2221 -0.9750 -0.0019
vn 0.0006 -0.0000 1.0000
vn -0.9953 -0.0941 -0.0247
vn 1.0000 0.0042 0.0002
vn -1.0000 -0.0042 -0.0000
vn 1.0000 0.0042 -0.0000
vn -0.0000 -0.0000 1.0000
vn -1.0000 -0.0045 -0.0002
vn -1.0000 -0.0043 -0.0003
vn -0.0004 0.0003 -1.0000
vn -0.0129 -0.0001 0.9999
vn 0.9999 -0.0050 0.0159
vn 0.4718 0.8817 -0.0000
vn 0.3799 0.0016 0.9250
vn 0.3770 0.0016 -0.9262
vn 0.3687 -0.9296 -0.0000
vn 0.4751 0.8799 -0.0000
vn 0.3770 0.0016 0.9262
vn 0.3799 0.0016 -0.9250
vn 0.3725 -0.9280 -0.0000
vn -0.0037 1.0000 -0.0000
vn -1.0000 -0.0037 0.0054
vn -0.0206 -0.0001 0.9998
vn -0.0042 1.0000 -0.0002
vn -0.0182 -0.0014 -0.9998
vn -1.0000 -0.0041 0.0054
vn 0.9999 0.0042 0.0122
vn 0.0037 -1.0000 -0.0000
vn 0.0042 -1.0000 0.0002
vn 0.9999 0.0041 0.0129
vn -0.0213 -0.0001 0.9998
vn 0.9999 0.0041 0.0160
vn -0.0006 -0.0000 -1.0000
vn 0.0223 -0.8089 -0.5876
vn 0.0292 0.3091 -0.9506
vn -0.9995 -0.0042 -0.0320
vn -0.0318 0.3088 0.9506
vn -0.0155 -0.8090 0.5875
vn -0.0154 -0.8091 0.5875
vn 0.9995 0.0045 0.0325
vn 0.9995 0.0042 0.0325
vn 0.9995 0.0042 0.0323
vn 0.9995 0.0043 0.0314
vn 0.9995 0.0043 0.0325
vn 0.9995 0.0042 0.0322
vn 0.0223 -0.8088 -0.5876
vn -0.0007 -0.0004 -1.0000
vt 0.857458 0.296925
vt 0.586245 0.297056
vt 0.586847 0.118688
vt 0.857458 0.118553
vt 0.403472 0.299878
vt 0.586187 0.300547
vt 0.586305 0.444544
vt 0.270692 0.130756
vt 0.135338 0.012127
vt 0.137296 0.000000
vt 0.286931 0.131145
vt 0.571462 0.149520
vt 0.571514 0.016321
vt 0.586245 -0.000000
vt 0.586187 0.147251
vt -0.000000 0.130756
vt 0.135346 0.130756
vt 0.300814 0.286976
vt 0.406256 0.290281
vt 0.403527 0.299878
vt 0.286986 0.299208
vt 0.300816 0.016321
vt 0.286988 0.000000
vt 0.135363 0.376032
vt 0.270709 0.376032
vt 0.270707 0.448957
vt 0.135361 0.448957
vt 0.135349 0.177452
vt 0.000001 0.145707
vt 0.287049 0.444544
vt 0.586198 0.599540
vt 0.286941 0.599540
vt 0.286931 0.300547
vt 0.571512 0.286976
vt 0.586243 0.299208
vt 0.300764 0.149520
vt 0.286931 0.147251
vt 0.879759 0.267255
vt 0.879759 0.163010
vt 0.952687 0.163013
vt 0.952687 0.267258
vt 0.730435 0.824279
vt 0.735574 0.824281
vt 0.735594 0.897206
vt 0.730455 0.897204
vt 0.857459 0.267255
vt 0.857459 0.163010
vt 0.952687 0.267548
vt 0.952687 0.163302
vt 0.977567 0.163010
vt 0.977567 0.267256
vt 0.417210 0.874313
vt 0.417210 0.978558
vt 0.394910 0.978558
vt 0.394910 0.874313
vt 0.949240 0.683513
vt 0.949240 0.579268
vt 0.974120 0.578976
vt 0.974120 0.683221
vt 0.996420 0.578976
vt 0.996420 0.683221
vt 0.974120 0.683221
vt 0.861079 0.567925
vt 0.861079 0.463680
vt 0.885959 0.463388
vt 0.885959 0.567633
vt 0.929505 0.567122
vt 0.929504 0.535508
vt 0.758052 0.801978
vt 0.758060 0.824277
vt 0.807846 0.779673
vt 0.782945 0.779676
vt 0.807837 0.757374
vt 0.876208 0.578976
vt 0.876320 0.757362
vt 0.832738 0.757371
vt 0.066921 0.309134
vt 0.091822 0.309139
vt 0.066922 0.331433
vt 0.042021 0.331428
vt 0.042023 0.353727
vt 0.017122 0.353722
vt 0.017123 0.376021
vt 0.135404 0.309142
vt 0.929505 0.462877
vt 0.929505 0.494491
vt 0.286842 0.735437
vt 0.286842 0.824835
vt 0.280808 0.824837
vt 0.280808 0.735439
vt 0.269709 0.945571
vt 0.238095 0.945571
vt 0.238095 0.856162
vt 0.269709 0.767175
vt 0.197078 0.856162
vt 0.165464 0.767177
vt 0.197078 0.945572
vt 0.165464 0.945572
vt 0.980009 0.914065
vt 0.938992 0.914065
vt 0.938992 0.824656
vt 0.980009 0.824655
vt 0.935535 0.494420
vt 0.935533 0.535437
vt 0.274774 0.824842
vt 0.274774 0.735437
vt 0.280808 0.735438
vt 0.280808 0.824843
vt 0.579458 0.859753
vt 0.579458 0.818736
vt 0.585492 0.818807
vt 0.585492 0.859824
vt 0.426739 0.903475
vt 0.427911 0.768723
vt 0.532149 0.767536
vt 0.532149 0.904986
vt 0.532149 0.908259
vt 0.532149 0.767536
vt 0.547099 0.770240
vt 0.578842 0.908271
vt 0.581524 0.599562
vt 0.581514 0.704933
vt 0.566562 0.704934
vt 0.566562 0.599540
vt 0.286931 0.978535
vt 0.286931 0.874313
vt 0.333629 0.874314
vt 0.333629 0.978535
vt 0.274774 0.572420
vt 0.274774 0.448957
vt 0.281433 0.448957
vt 0.281433 0.572420
vt 0.857459 0.123457
vt 0.857459 0.000000
vt 0.867883 0.000002
vt 0.867883 0.123458
vt 0.274774 0.735437
vt 0.274774 0.611973
vt 0.281432 0.611973
vt 0.281432 0.735437
vt 0.917921 0.423328
vt 0.917921 0.299881
vt 0.928345 0.299878
vt 0.928345 0.423325
vt 0.861079 0.578429
vt 0.861079 0.568005
vt 0.867738 0.567925
vt 0.867738 0.578349
vt 0.579458 0.870241
vt 0.579458 0.859824
vt 0.586117 0.859904
vt 0.586117 0.870320
vt 0.917921 0.433628
vt 0.928345 0.433625
vt 0.912299 0.133766
vt 0.912299 0.123465
vt 0.924727 0.123467
vt 0.924727 0.133768
vt 0.857459 0.133758
vt 0.867883 0.133759
vt 0.274774 0.582721
vt 0.281433 0.582721
vt 0.281433 0.611973
vt 0.857459 0.163009
vt 0.867883 0.163010
vt 0.857458 0.296510
vt 0.857458 0.267258
vt 0.864116 0.267258
vt 0.864116 0.296510
vt 0.917921 0.462877
vt 0.928345 0.462874
vt 0.867738 0.578227
vt 0.867738 0.567925
vt 0.874395 0.567925
vt 0.874395 0.578227
vt 0.579458 0.806237
vt 0.586117 0.806316
vt 0.586117 0.818736
vt 0.579458 0.818656
vt 0.586117 0.717362
vt 0.579458 0.717442
vt 0.579458 0.705014
vt 0.586117 0.704934
vt 0.873507 0.423340
vt 0.873507 0.433641
vt 0.861079 0.433644
vt 0.861079 0.423344
vt 0.883988 0.423337
vt 0.883988 0.433638
vt 0.281433 0.491652
vt 0.286022 0.491651
vt 0.286022 0.512999
vt 0.281433 0.512999
vt 0.579458 0.795764
vt 0.586117 0.795844
vt 0.901818 0.133765
vt 0.901818 0.123464
vt 0.889245 0.133763
vt 0.889245 0.123462
vt 0.579458 0.783201
vt 0.586117 0.783281
vt 0.586117 0.740415
vt 0.579458 0.740494
vt 0.579458 0.727922
vt 0.586117 0.727843
vt 0.896560 0.423334
vt 0.896560 0.433634
vt 0.907223 0.423331
vt 0.907223 0.433631
vt 0.417210 0.874315
vt 0.424635 0.874313
vt 0.424635 0.895658
vt 0.417210 0.895660
vt 0.579458 0.772545
vt 0.586117 0.772625
vt 0.878581 0.133761
vt 0.878581 0.123460
vt 0.579458 0.761855
vt 0.586117 0.761935
vt 0.586117 0.761776
vt 0.579458 0.761855
vt 0.579458 0.751158
vt 0.586117 0.751078
vt 0.585083 0.718994
vt 0.580493 0.719049
vt 0.580493 0.726291
vt 0.585083 0.726236
vt 0.585083 0.742046
vt 0.580493 0.742101
vt 0.580493 0.749526
vt 0.585083 0.749471
vt 0.286023 0.549068
vt 0.281433 0.549123
vt 0.281433 0.541881
vt 0.286023 0.541826
vt 0.286024 0.541771
vt 0.281434 0.541826
vt 0.281434 0.534402
vt 0.286024 0.534347
vt 0.897153 0.271714
vt 0.904395 0.271712
vt 0.904395 0.293057
vt 0.897153 0.293059
vt 0.281434 0.512999
vt 0.286023 0.512999
vt 0.286023 0.534347
vt 0.281434 0.534347
vt 0.281433 0.448957
vt 0.286023 0.448957
vt 0.286023 0.470304
vt 0.281433 0.470304
vt 0.566562 0.741241
vt 0.573987 0.741242
vt 0.573987 0.762588
vt 0.566562 0.762587
vt 0.281433 0.470304
vt 0.286023 0.470304
vt 0.286023 0.491651
vt 0.281433 0.491652
vt 0.889911 0.271712
vt 0.897153 0.271713
vt 0.897153 0.293059
vt 0.889911 0.293058
vt 0.030801 0.906935
vt 0.000000 0.945568
vt 0.000122 0.767176
vt 0.165411 0.767175
vt 0.165464 0.945568
vt 0.129712 0.906935
vt 0.129713 0.830742
vt 0.096969 0.830742
vt 0.096968 0.906935
vt 0.063546 0.906935
vt 0.063547 0.830742
vt 0.030802 0.830742
vt 0.735482 0.579006
vt 0.735600 0.757390
vt 0.722142 0.000000
vt 0.270698 0.694246
vt 0.270578 0.627350
vt 0.274653 0.627350
vt 0.274772 0.694246
vt 0.805082 0.951980
vt 0.837827 0.951980
vt 0.837733 0.959856
vt 0.804988 0.959849
vt 0.876320 0.718939
vt 0.884197 0.718940
vt 0.884197 0.795129
vt 0.876333 0.795128
vt 0.987040 0.097969
vt 0.979191 0.097971
vt 0.979191 0.021788
vt 0.987060 0.021786
vt 0.743926 0.905094
vt 0.776671 0.905094
vt 0.791465 0.960675
vt 0.730435 0.960675
vt 0.379991 0.882170
vt 0.347246 0.882170
vt 0.347152 0.874328
vt 0.379896 0.874313
vt 0.440231 0.959755
vt 0.472976 0.959755
vt 0.472881 0.967654
vt 0.440136 0.967640
vt 0.876320 0.846107
vt 0.884220 0.846108
vt 0.884220 0.922297
vt 0.876327 0.922296
vt 0.990688 0.397583
vt 0.982809 0.397585
vt 0.982809 0.321402
vt 0.990694 0.321400
vt 0.924727 0.127421
vt 0.924727 0.000000
vt 0.743832 0.897221
vt 0.776577 0.897206
vt 0.996815 0.567924
vt 0.935535 0.567925
vt 0.935535 0.440488
vt 0.996815 0.440487
vt 1.000000 0.824138
vt 0.938971 0.824139
vt 0.938971 0.697225
vt 1.000000 0.697224
vt 0.938992 0.824655
vt 0.938992 0.951562
vt 0.426739 0.904986
vt 0.487768 0.904986
vt 0.394910 0.937762
vt 0.333629 0.937762
vt 0.928345 0.426775
vt 0.928345 0.299878
vt 0.938971 0.697224
vt 0.938971 0.824655
vt 0.791464 0.897206
vt 0.852745 0.897206
vt 0.726337 0.671469
vt 0.586305 0.583322
vt 0.589042 0.578976
vt 0.730435 0.669719
vt 0.426739 0.767536
vt 0.426739 0.599540
vt 0.493634 0.599599
vt 0.493634 0.767414
vt 0.286935 0.599540
vt 0.353819 0.599554
vt 0.353819 0.873729
vt 0.286931 0.874313
vt 0.586305 0.903552
vt 0.589806 0.905637
vt 0.730462 0.757388
vt 0.566562 0.599604
vt 0.566562 0.767419
vt 0.876320 0.697211
vt 0.876320 0.578976
vt 0.949240 0.578989
vt 0.949240 0.697224
vt 0.513567 0.941129
vt 0.513567 0.904986
vt 0.526467 0.904986
vt 0.526467 0.941129
vt 0.274033 0.838003
vt 0.274033 0.825106
vt 0.286931 0.825110
vt 0.286931 0.838007
vt 0.487768 0.941137
vt 0.487768 0.904986
vt 0.500667 0.904986
vt 0.500667 0.941138
vt 0.877014 0.280158
vt 0.889912 0.280160
vt 0.889912 0.293059
vt 0.877014 0.293057
vt 0.286921 0.874313
vt 0.286921 0.910465
vt 0.274034 0.910620
vt 0.274034 0.874468
vt 0.274034 0.874159
vt 0.274034 0.838007
vt 0.286931 0.838161
vt 0.286931 0.874313
vt 0.586305 0.941781
vt 0.586305 0.905637
vt 0.599205 0.905638
vt 0.599205 0.941781
vt 0.864116 0.280155
vt 0.864116 0.267258
vt 0.877014 0.267261
vt 0.877014 0.280158
vt 0.500667 0.941137
vt 0.500667 0.904986
vt 0.513567 0.904986
vt 0.513567 0.941138
vt 0.864116 0.280158
vt 0.877014 0.280160
vt 0.877014 0.293059
vt 0.864116 0.293057
vt 0.865632 0.897206
vt 0.865632 0.933358
vt 0.852745 0.933513
vt 0.852745 0.897361
vt 0.566562 0.741086
vt 0.579458 0.705089
vt 0.579458 0.741241
vt 0.000000 0.694246
vt 0.000000 0.448957
vt 0.270698 0.448957
vt 0.857002 0.570532
vt 0.691746 0.573837
vt 0.690530 0.433123
vt 0.857004 0.299878
vt 0.586305 0.435205
vt 0.586306 0.299878
vt 0.691505 0.551353
vt 0.587280 0.553435
vt 0.859606 0.574153
vt 0.691848 0.578976
vt 0.861079 0.299897
vt 0.270699 0.767175
vt 0.000002 0.767175
vt 0.426739 0.599583
vt 0.426739 0.873759
vt 0.017121 0.448946
vt 0.274774 0.767175
vt 0.876300 0.824251
vt 0.876320 0.897176
vt 0.286419 0.566081
vt 0.284375 0.566091
vt 0.284409 0.563966
vt 0.286453 0.563956
vt 0.284375 0.560487
vt 0.286419 0.560477
vt 0.284294 0.575261
vt 0.282252 0.575225
vt 0.282252 0.572894
vt 0.284294 0.572930
vt 0.285942 0.557994
vt 0.284533 0.560477
vt 0.282252 0.558758
vt 0.282252 0.555213
vt 0.284533 0.554740
vt 0.282252 0.560501
vt 0.284295 0.560477
vt 0.284374 0.563959
vt 0.282332 0.563984
vt 0.284295 0.566074
vt 0.282252 0.566099
vt 0.283994 0.566099
vt 0.285051 0.566152
vt 0.285051 0.569511
vt 0.283994 0.569458
vt 0.283195 0.552115
vt 0.284138 0.553188
vt 0.284138 0.554740
vt 0.282252 0.552595
vt 0.283555 0.550379
vt 0.282972 0.549123
vt 0.284720 0.550379
vt 0.285303 0.549123
vt 0.285081 0.552115
vt 0.286023 0.552595
vt 0.285757 0.568968
vt 0.285051 0.567726
vt 0.285757 0.566099
vt 0.286898 0.566336
vt 0.286898 0.568109
vt 0.285732 0.568989
vt 0.286898 0.568968
vt 0.286898 0.572326
vt 0.285732 0.572347
vt 0.285055 0.572894
vt 0.283992 0.572871
vt 0.283992 0.569511
vt 0.285055 0.569533
vt 0.282252 0.566118
vt 0.282252 0.569477
vt 0.282252 0.572880
vt 0.282252 0.569519
vt 0.782953 0.801975
s 0
usemtl Material.004
f 111/1/1 128/2/1 3/3/1 6/4/1
f 25/5/2 24/6/2 10/7/2
f 8/8/3 14/9/3 27/10/3 28/11/3
f 12/12/4 3/13/4 29/14/4 10/15/4
f 11/16/5 14/9/5 20/17/5
f 14/9/5 8/8/5 20/17/5
f 11/18/6 18/19/6 25/20/6 26/21/6
f 3/13/7 8/22/7 28/23/7 29/14/7
f 19/24/8 7/25/8 153/26/8 156/27/8
f 11/16/5 20/17/5 56/28/5 55/29/5
f 27/30/9 10/7/9 29/31/9 28/32/9
f 26/33/10 25/5/10 27/30/10
f 27/30/11 25/5/11 10/7/11
f 18/19/12 6/34/12 24/35/12 25/20/12
f 14/36/13 11/18/13 26/21/13 27/37/13
f 6/34/14 12/12/14 10/15/14 24/35/14
f 30/38/15 31/39/15 157/40/15 158/41/15
f 133/42/16 16/43/16 154/44/16 161/45/16
f 31/39/17 30/38/17 37/46/17 38/47/17
f 38/48/18 37/49/18 36/50/18 39/51/18
f 39/52/17 36/53/17 35/54/17 40/55/17
f 40/56/18 35/57/18 34/58/18 41/59/18
f 41/60/17 34/61/17 33/62/17 42/58/17
f 42/63/18 33/64/18 32/65/18 43/66/18
f 45/67/19 43/66/19 47/68/19
f 37/69/20 30/70/20 16/43/20
f 34/71/21 35/72/21 33/73/21
f 33/73/21 23/74/21 44/75/21 32/76/21
f 42/77/21 43/78/21 41/79/21
f 40/80/21 41/79/21 39/81/21
f 38/82/21 39/81/21 31/83/21
f 45/84/21 19/24/21 31/83/21 39/81/21 41/79/21 43/78/21
f 32/65/19 44/85/19 46/86/19
f 43/66/19 32/65/19 46/86/19 47/68/19
f 45/84/5 20/17/5 8/8/5 7/25/5 19/24/5
f 49/87/22 47/88/22 51/89/22 53/90/22
f 45/91/23 47/92/23 49/93/23 20/94/23
f 20/94/24 49/93/24 48/95/24 23/96/24
f 23/96/25 48/95/25 46/97/25 44/98/25
f 51/99/26 50/100/26 52/101/26 53/102/26
f 47/68/19 46/86/19 50/103/19 51/104/19
f 46/105/27 48/106/27 52/107/27 50/108/27
f 48/109/28 49/110/28 53/111/28 52/112/28
f 55/113/29 56/114/29 57/115/29 54/116/29
f 23/117/30 18/118/30 54/119/30 57/120/30
f 18/121/31 11/122/31 55/123/31 54/124/31
f 20/125/32 23/126/32 57/127/32 56/128/32
f 66/129/33 59/130/33 61/131/33 67/132/33
f 67/133/21 61/134/21 65/135/21 68/136/21
f 68/137/34 65/138/34 63/139/34 69/140/34
f 69/141/35 63/142/35 59/143/35 66/144/35
f 60/145/28 64/146/28 62/147/28 58/148/28
f 65/149/19 61/150/19 59/151/19 63/152/19
f 72/153/35 69/141/35 66/144/35 73/154/35
f 94/155/21 78/156/21 74/157/21 76/158/21
f 70/159/21 67/133/21 68/136/21 71/160/21
f 73/161/33 66/129/33 67/132/33 70/162/33
f 58/138/33 73/161/33 70/162/33 60/163/33
f 60/164/21 70/159/21 71/160/21 64/165/21
f 64/166/34 71/167/34 72/168/34 62/169/34
f 62/170/35 72/153/35 73/154/35 58/171/35
f 76/172/34 74/173/34 75/174/34 77/175/34
f 78/176/19 80/177/19 75/178/19 74/179/19
f 95/180/28 94/181/28 76/182/28 77/183/28
f 80/184/35 95/185/35 77/186/35 75/187/35
f 85/188/35 97/189/35 95/185/35 80/184/35
f 86/190/34 87/191/34 107/192/34 106/193/34
f 84/194/19 85/195/19 80/177/19 78/176/19
f 96/196/21 84/197/21 78/156/21 94/155/21
f 98/198/21 88/199/21 84/197/21 96/196/21
f 88/200/19 89/201/19 85/195/19 84/194/19
f 99/202/28 98/203/28 96/204/28 97/205/28
f 89/206/35 99/207/35 97/189/35 85/188/35
f 93/208/35 101/209/35 99/207/35 89/206/35
f 87/210/35 91/211/35 109/212/35 107/213/35
f 92/214/19 93/215/19 89/201/19 88/200/19
f 100/216/21 92/217/21 88/199/21 98/198/21
f 71/160/21 68/136/21 92/217/21 100/216/21
f 68/218/19 69/219/19 93/215/19 92/214/19
f 72/220/28 71/221/28 100/222/28 101/223/28
f 69/141/35 72/153/35 101/209/35 93/208/35
f 81/224/28 79/225/28 94/181/28 95/180/28
f 79/225/28 82/226/28 96/204/28 94/181/28
f 83/227/28 81/224/28 95/180/28 97/205/28
f 82/226/28 83/227/28 97/205/28 96/204/28
f 87/228/28 86/229/28 98/203/28 99/202/28
f 86/229/28 90/230/28 100/222/28 98/203/28
f 91/231/28 87/228/28 99/202/28 101/223/28
f 90/230/28 91/231/28 101/223/28 100/222/28
f 105/232/28 104/233/28 102/234/28 103/235/28
f 109/236/28 108/237/28 106/238/28 107/239/28
f 81/240/35 83/241/35 105/242/35 103/243/35
f 79/244/34 81/245/34 103/246/34 102/247/34
f 91/248/33 90/249/33 108/250/33 109/251/33
f 90/252/21 86/253/21 106/254/21 108/255/21
f 83/256/33 82/257/33 104/258/33 105/259/33
f 82/260/21 79/261/21 102/262/21 104/263/21
f 115/264/36 111/265/36 6/266/36 18/267/36 110/268/36 113/269/36 114/270/36 112/271/36 118/272/36 119/273/36 117/274/36 116/275/36
f 110/268/37 111/265/37 115/264/37 119/273/37 118/272/37 113/269/37
f 18/276/38 23/74/38 33/73/38 110/277/38
f 12/278/39 6/4/39 3/3/39
f 1/279/40 128/280/40 132/281/40 131/282/40
f 9/283/28 4/284/28 112/285/28 114/286/28
f 112/287/21 4/288/21 5/289/21 118/290/21
f 113/291/35 2/292/35 9/293/35 114/294/35
f 13/295/41 17/296/41 126/297/41 127/298/41
f 5/299/19 2/300/19 113/301/19 118/302/19
f 21/303/28 15/304/28 116/305/28 117/306/28
f 116/307/21 15/308/21 17/309/21 115/310/21
f 119/311/35 13/312/35 21/313/35 117/314/35
f 9/293/42 2/292/42 123/315/42 121/316/42
f 17/296/19 13/295/19 119/317/19 115/318/19
f 123/319/33 122/320/33 120/321/33 121/322/33
f 127/323/33 126/324/33 124/325/33 125/326/33
f 17/309/43 15/308/43 124/327/43 126/328/43
f 15/304/44 21/303/44 125/329/44 124/330/44
f 2/300/45 5/299/45 122/331/45 123/332/45
f 21/313/46 13/312/46 127/333/46 125/334/46
f 5/289/47 4/288/47 120/335/47 122/336/47
f 4/284/48 9/283/48 121/337/48 120/338/48
f 111/339/49 110/340/49 134/341/49 130/342/49
f 130/343/50 134/344/50 133/345/50 129/346/50
f 130/347/51 129/348/51 131/349/51 132/350/51
f 128/351/52 111/339/52 130/342/52 132/352/52
f 110/277/53 16/43/53 133/42/53 134/353/53
f 129/346/54 133/345/54 161/354/54 160/355/54
f 22/356/35 30/357/35 158/358/35 155/359/35
f 135/360/34 137/361/34 138/362/34 136/363/34
f 137/364/35 141/365/35 142/366/35 138/367/35
f 141/368/33 139/369/33 140/370/33 142/371/33
f 139/372/21 135/373/21 136/374/21 140/375/21
f 137/376/19 135/377/19 139/378/19 141/379/19
f 142/380/28 140/381/28 136/382/28 138/383/28
f 143/384/34 145/385/34 146/386/34 144/387/34
f 145/388/35 149/389/35 150/390/35 146/391/35
f 149/392/33 147/393/33 148/394/33 150/395/33
f 147/396/21 143/397/21 144/398/21 148/399/21
f 145/400/19 143/401/19 147/402/19 149/403/19
f 150/404/28 148/123/28 144/405/28 146/406/28
f 7/407/55 8/408/55 3/409/55 128/280/55 1/279/55
f 152/410/28 154/411/28 155/412/28 151/413/28
f 156/414/28 153/415/28 151/413/28 155/412/28
f 156/414/28 155/412/28 158/416/28 157/417/28
f 154/411/56 152/410/56 160/418/56 161/419/56
f 152/410/57 151/413/57 159/420/57 160/418/57
f 7/407/58 1/279/58 151/421/58 153/422/58
f 131/349/59 129/348/59 160/423/59 159/424/59
f 31/83/21 19/24/21 156/27/21 157/425/21
f 1/279/60 131/282/60 159/426/60 151/421/60
f 16/43/61 22/427/61 155/428/61 154/44/61
f 172/429/62 163/430/62 165/431/62 173/432/62
f 173/432/63 165/431/63 167/433/63 174/434/63
f 174/435/19 167/436/19 169/437/19 175/438/19
f 165/439/64 163/440/64 171/441/64 169/442/64 167/443/64
f 175/444/65 169/445/65 171/446/65 176/447/65
f 176/447/66 171/446/66 163/448/66 172/449/66
f 170/450/67 162/451/67 177/452/67 181/453/67
f 164/454/68 162/455/68 172/456/68 173/457/68
f 166/458/69 164/454/69 173/457/69 174/459/69
f 168/460/70 166/458/70 174/459/70 175/461/70
f 170/462/71 168/460/71 175/461/71 176/463/71
f 162/455/72 170/462/72 176/463/72 172/456/72
f 177/464/73 178/465/73 179/466/73 180/467/73 181/468/73
f 166/469/19 168/470/19 180/471/19 179/472/19
f 162/473/74 164/474/74 178/475/74 177/476/74
f 168/477/65 170/450/65 181/453/65 180/478/65
f 164/474/63 166/479/63 179/480/63 178/475/63
f 36/481/75 37/69/75 16/43/75 110/277/75 33/73/75 35/72/75
